<svg xmlns="http://www.w3.org/2000/svg" viewBox="0 0 200 200">
  <rect width="200" height="200" rx="20" fill="#FFF9C4"/>
  <!-- Apple body -->
  <circle cx="95" cy="115" r="42" fill="#F44336"/>
  <circle cx="110" cy="115" r="42" fill="#E53935"/>
  <!-- Highlight -->
  <ellipse cx="85" cy="100" rx="12" ry="18" fill="#EF5350" opacity="0.6"/>
  <!-- Stem -->
  <path d="M100,73 Q102,55 108,48" fill="none" stroke="#5D4037" stroke-width="3" stroke-linecap="round"/>
  <!-- Leaf -->
  <ellipse cx="115" cy="55" rx="14" ry="7" fill="#66BB6A" transform="rotate(-20 115 55)"/>
  <path d="M108,55 Q115,50 122,55" fill="none" stroke="#43A047" stroke-width="1"/>
  <!-- Bottom indent -->
  <path d="M90,155 Q100,148 110,155" fill="#FFF9C4" stroke="none"/>
  <!-- Cute face -->
  <circle cx="88" cy="112" r="3" fill="#333"/>
  <circle cx="112" cy="112" r="3" fill="#333"/>
  <circle cx="89" cy="111" r="1" fill="white"/>
  <circle cx="113" cy="111" r="1" fill="white"/>
  <path d="M95,122 Q100,128 105,122" fill="none" stroke="#B71C1C" stroke-width="1.5" stroke-linecap="round"/>
  <!-- Cheeks -->
  <circle cx="80" cy="120" r="5" fill="#FF8A80" opacity="0.5"/>
  <circle cx="120" cy="120" r="5" fill="#FF8A80" opacity="0.5"/>
</svg>
