<svg xmlns="http://www.w3.org/2000/svg" viewBox="0 0 200 200">
  <rect width="200" height="200" rx="20" fill="#E3F2FD"/>
  <!-- Rays -->
  <g stroke="#FFD54F" stroke-width="4" stroke-linecap="round">
    <line x1="100" y1="20" x2="100" y2="42"/>
    <line x1="100" y1="148" x2="100" y2="170"/>
    <line x1="25" y1="95" x2="47" y2="95"/>
    <line x1="143" y1="95" x2="165" y2="95"/>
    <line x1="45" y1="42" x2="60" y2="57"/>
    <line x1="130" y1="123" x2="145" y2="138"/>
    <line x1="145" y1="42" x2="130" y2="57"/>
    <line x1="60" y1="123" x2="45" y2="138"/>
  </g>
  <!-- Sun body -->
  <circle cx="100" cy="95" r="42" fill="#FFC107"/>
  <circle cx="100" cy="95" r="36" fill="#FFD54F"/>
  <!-- Face -->
  <circle cx="86" cy="88" r="4" fill="#E65100"/>
  <circle cx="114" cy="88" r="4" fill="#E65100"/>
  <!-- Smile -->
  <path d="M84,102 Q100,116 116,102" fill="none" stroke="#E65100" stroke-width="2.5" stroke-linecap="round"/>
  <!-- Cheeks -->
  <circle cx="76" cy="100" r="6" fill="#FFAB91" opacity="0.5"/>
  <circle cx="124" cy="100" r="6" fill="#FFAB91" opacity="0.5"/>
  <!-- Ground -->
  <path d="M0,170 Q50,158 100,165 Q150,172 200,160 L200,200 L0,200 Z" fill="#A5D6A7"/>
  <!-- Flowers -->
  <circle cx="40" cy="172" r="5" fill="#F48FB1"/>
  <circle cx="40" cy="172" r="2" fill="#FFD54F"/>
  <circle cx="150" cy="168" r="5" fill="#CE93D8"/>
  <circle cx="150" cy="168" r="2" fill="#FFD54F"/>
</svg>
